<svg id="Capa_1" enable-background="new 0 0 512 512" height="512" viewBox="0 0 512 512" width="512" xmlns="http://www.w3.org/2000/svg"><g><path d="m451 437c0 8.284-6.716 15-15 15h-15l-86 12-94-12c-8.284 0-15-6.716-15-15s6.716-15 15-15c16.542 0 30-13.458 30-30v-345c0-8.284 6.716-15 15-15h150c8.284 0 15 6.716 15 15z" fill="#fff7cc"/><g fill="#ffca80"><path d="m376 242h-90c-8.284 0-15-6.716-15-15s6.716-15 15-15h90c8.284 0 15 6.716 15 15s-6.716 15-15 15z"/><path d="m376 302h-90c-8.284 0-15-6.716-15-15s6.716-15 15-15h90c8.284 0 15 6.716 15 15s-6.716 15-15 15z"/><path d="m376 362h-90c-8.284 0-15-6.716-15-15s6.716-15 15-15h90c8.284 0 15 6.716 15 15s-6.716 15-15 15z"/><path d="m376 92h-90c-8.284 0-15 6.716-15 15v60c0 8.284 6.716 15 15 15h90c8.284 0 15-6.716 15-15v-60c0-8.284-6.716-15-15-15z"/></g><path d="m301 45v362l-30 15c0-11.08-6.04-20.77-15-25.97-4.41-2.56-9.54-4.03-15-4.03h-75c-8.28 0-15-6.72-15-15v-322l30-23v-17c0-8.28 6.72-15 15-15h60c24.85 0 45 20.15 45 45z" fill="#613d5c"/><path d="m301 45v362l-30 15c0-11.08-6.04-20.77-15-25.97v-396.03c24.85 0 45 20.15 45 45z" fill="#4b2746"/><path d="m301 407c0 24.85-20.15 45-45 45l-195 30v-405c0-24.85 20.15-45 45-45h75v315c0 8.28 6.72 15 15 15h60c24.85 0 45 20.15 45 45z" fill="#ff641a"/><path d="m301 407c0 24.85-20.15 45-45 45v-90c24.85 0 45 20.15 45 45z" fill="#f03800"/><g><path d="m451 497c0 8.4-6.6 15-15 15h-345c-16.5 0-30-13.5-30-30 0-16.52 13.55-30 30-30h15l150 14.29 165 15.71h15c8.4 0 15 6.6 15 15z" fill="#613d5c"/><path d="m451 497c0 8.4-6.6 15-15 15h-180v-45.71l165 15.71h15c8.4 0 15 6.6 15 15z" fill="#4b2746"/><path d="m421 452v30h-315c-8.28 0-15-6.72-15-15s6.72-15 15-15z" fill="#ffe6b3"/><path d="m256 452h165v30h-165z" fill="#ffca80"/></g></g></svg>