<svg id="Capa_1" enable-background="new 0 0 512 512" height="512" viewBox="0 0 512 512" width="512" xmlns="http://www.w3.org/2000/svg"><g><path d="m497 106c8.28 0 15 6.72 15 15v330c0 8.28-6.72 15-15 15h-482c-8.28 0-15-6.72-15-15v-330c0-8.28 6.72-15 15-15h30l211 34.29 211-34.29z" fill="#613d5c"/><path d="m497 106c8.28 0 15 6.72 15 15v330c0 8.28-6.72 15-15 15h-241v-325.71l211-34.29z" fill="#4b2746"/><path d="m467 106c8.284 0 15 6.716 15 15v300c0 8.284-6.716 15-15 15h-422c-8.284 0-15-6.716-15-15v-300c0-8.284 6.716-15 15-15z" fill="#fff7cc"/><path d="m467 106c8.284 0 15 6.716 15 15v300c0 8.284-6.716 15-15 15h-211v-330z" fill="#ffca80"/><path d="m151 91c0-8.284-6.716-15-15-15h-60c-8.284 0-15 6.716-15 15v300c0 8.284 6.716 15 15 15h120c16.025 0 30.498 8.428 38.713 22.545 2.686 4.616 7.624 7.455 12.964 7.455h8.323v-30z" fill="#ffe6b3"/><path d="m436 76c8.28 0 15 6.72 15 15v300c0 8.28-6.72 15-15 15h-120c-16.03 0-30.5 8.43-38.71 22.54-2.69 4.62-7.63 7.46-12.97 7.46h-8.32c-8.28 0-15-6.72-15-15 0-41.35-33.65-75-75-75h-30c-8.28 0-15-6.72-15-15v-270c0-8.28 6.72-15 15-15h60c33.14 0 60 26.86 60 60 0-16.57 13.43-30 30-30z" fill="#fff7cc"/><path d="m436 76c8.28 0 15 6.72 15 15v300c0 8.28-6.72 15-15 15h-120c-16.03 0-30.5 8.43-38.71 22.54-2.69 4.62-7.63 7.46-12.97 7.46h-8.32v-330c0-16.57 13.43-30 30-30z" fill="#ffe6b3"/></g></svg>